<?xml version="1.0" encoding="UTF-8"?><svg id="a" xmlns="http://www.w3.org/2000/svg" width="2293.23" height="1032.28" xmlns:xlink="http://www.w3.org/1999/xlink" viewBox="0 0 2293.23 1032.28"><rect x=".14" y=".14" width="2292.94" height="1032" fill="#ffa600" stroke="#000" stroke-miterlimit="10" stroke-width=".28"/><path d="M883.36,894.06l29.89,7.49h0l15.29-15.29,27.68-19.88,15.41-7.89,25.93-8.19,30.03.71,14.38,9.63,9.59,6.19,16.64,13.87,10.86,2.12,10.13-49.84,45.43-22.05,42.1-50.81,22.75-6.1,14.81-11.98,19.87-1.23,51.13,9.34,36.31,14.1,19.51-23.08,26.92-1.06,10.54-5.73h0l-4.7-20.94,8.32-19.97,5.52-4.06,36.55-1.15,15.56-33.14h0l-29.31-3-26.14-12.55-10.67-33.14-11.61-6.93-8.67-10.75-5.24-22.03,1.08-27.14-15.54-12.69-3.07-20.79-7.59-3.52-25.29,7.75-5.24-1.94-6.87-43.17,15-12.16-26.56-62.9-30.85-34.09-48.03-9.81,7.15-23.86,7.06,1.86,3.53-2.47-3.26-28.81,7.24-25.27,5.97-8.13,17.91-5.83,18.91-24.3,17.46-38.26-1.99-12.28-21.35-12.19-24.42-7.51-15.2,2.03-27.14-17.85-19.9-5.66-27.45,2.21-19.86,9.01.09-54.52h0l.36-14.4-6.97-10.34-7.24.35-5.34,1.94-7.6,4.15-15.02,25.8-15.02,5.92-3.5,4.08-16.44,18.85-4.52,3.17-17.52,11.81-3.97,6.87-1.45,11.45,8.41,47.77-.72,28.28-33.47,12.55-52.65,13.43-15.15,4.51-10.95,6.17h0c.6,2.53,1.15,5.08,1.56,7.64.88,5.54,1.22,10.73,1.76,16.32l.04.41c.25,2.54.53,5.07.91,7.59,1.32,8.74,1.75,17.79,4.88,26.08,2.99,7.93,9.61,14.15,13.19,21.85,2.08,4.46,3.79,9.38,3.61,14.27-.14,3.87-4.37,6.88-4.52,10.75-.17,4.33.83,9.14,3.61,12.51,2.24,2.71,7.56,1.28,9.94,3.88,2.18,2.38.8,6.44,2.17,9.34,3.37,7.17,9.09,13.23,11.92,20.62,2.78,7.24,3.84,15.05,4.7,22.73.78,7.01,1.15,14.16.18,21.14-.8,5.8-4.9,10.91-5.42,16.74-.59,6.65.1,13.55,2.17,19.91,1.58,4.86,5.28,8.84,8.49,12.86,4.88,6.11,12.24,10.49,15.72,17.44,2.93,5.86,3.13,12.88,2.71,19.38-.26,3.99-3.75,7.21-4.7,11.1-1.78,7.34.55,15.91-3.43,22.38-3.8,6.17-12.91,7.35-18.07,12.51-4.25,4.25-5.85,10.46-9.58,15.15-3.18,4-8.65,6.24-11.02,10.75-1.76,3.35-2.87,8.27-.54,11.28,3.37,4.36,10.32,4.39,15,7.4,3.95,2.55,9.17,4.78,10.66,9.16,1.66,4.9.6,11.04-2.35,15.33-4.15,6.04-12.97,7.8-17.52,13.57-3.81,4.83-5.2,11.17-6.68,17.09-2.15,8.54-3.92,17.28-4.16,26.08-.13,4.97,2.93,9.65,3.07,14.62.16,5.62-.3,11.42-2.17,16.74-1.82,5.18-5.25,9.75-8.67,14.1-5.46,6.92-13.64,11.87-17.89,19.56-5.3,9.6-6.75,20.79-10.12,31.19-2.47,7.63-5.91,15.04-7.41,22.91-1.41,7.4-.29,15.08-1.26,22.55-.72,5.56-.96,11.52-3.79,16.39-1.29,2.22-2.97,4.16-4.84,5.96h0Z" fill="#e88f00" fill-rule="evenodd" stroke="#000" stroke-miterlimit="10"/><path d="M785.8,467.22c4.01,1.74,7.86,3.87,12.03,5.21,22,7.09,44.49,12.71,66.4,20.06,3.02,1.01,5.42,3.32,8.14,4.95,4.69,2.81,9.84,5,14.11,8.39,3.63,2.89,5.8,7.24,9.32,10.25,1.66,1.42,3.9,2.06,5.97,2.83,11.03,4.08,22.19,7.79,33.28,11.69,4.25,1.49,8.69,2.56,12.76,4.48,6.88,3.24,13.4,7.18,19.99,10.96,2.01,1.15,4.29,2.06,5.79,3.8,1.08,1.25,1.44,3.05,1.54,4.68.42,6.88-.76,13.83,0,20.68.17,1.51,1.36,2.96,2.71,3.71,5.13,2.87,10.72,4.93,16.28,6.89,2.4.85,5.06,2.21,7.51,1.5,5.38-1.56,9.96-5.08,14.74-7.95,3.46-2.08,6.31-5.13,9.95-6.89,9.53-4.62,19.58-8.18,29.4-12.19,1.64-.67,3.76-.59,4.98-1.86,3.35-3.47,5.43-7.93,8.23-11.84.64-.89,1.2-1.9,2.08-2.56,8.19-6.16,18.15-10.34,25.06-17.85,4.86-5.29,5.71-13.09,9.14-19.35,1.92-3.52,3.84-7.23,6.88-9.9,2.21-1.94,5.46-2.31,8.23-3.36,1.99-.75,3.98-1.58,6.06-2.03.91-.2,2.07-.48,2.8.09,11.15,8.68,21.22,18.64,32.38,27.31,4.61,3.58,9.32,7.35,14.84,9.37,4.74,1.74,10.05,1.78,15.11,1.59,3.9-.14,7.9-.89,11.4-2.56,4.41-2.11,7.42-6.49,11.85-8.57,2.63-1.23,6.12.29,8.68-1.06,2.63-1.39,3.28-5.17,5.88-6.63,2.92-1.64,6.51-1.82,9.86-2.21,6.69-.77,13.8.91,20.17-1.24,7.86-2.65,14.51-7.98,21.26-12.72,2.25-1.58,3.06-4.84,5.52-6.1,4.95-2.54,10.46-4.23,16.01-4.95,2.42-.32,4.62,1.8,7.06,1.94.79.05,1.25-.96,1.9-1.41.98-.69,1.79-1.84,2.99-2.03,5.34-.86,10.78-1.05,16.19-1.06,15.56-.02,31.12,1.35,46.68.97,5.28-.13,10.59-.99,15.65-2.47,13.9-4.07,27.21-9.91,41.07-14.14,7.7-2.35,15.86-3.1,23.52-5.57,4.68-1.5,8.71-4.52,13.3-6.27,3.44-1.32,7.47-1.12,10.67-2.92,1.18-.66.98-2.5,1.27-3.8.47-2.18.26-4.51.99-6.63.41-1.19,1.29-2.29,2.35-3,3.29-2.19,7.3-3.24,10.49-5.57.69-.5.63-1.64.54-2.47-.49-4.69-.73-9.49-2.26-13.96-.37-1.07-2.47-.62-3.08-1.59-1.18-1.89-1.9-4.15-1.9-6.36,0-7.42,1.22-14.79,1.9-22.18.86-9.34,1.78-18.68,2.71-28.01.11-1.08.27-2.15.41-3.23.29-2.25.68-4.49.86-6.75.26-3.29.84-6.62.45-9.9-.4-3.37-2.36-6.44-2.8-9.81-.23-1.71.44-3.44.81-5.13,2.13-9.54,4.39-19.04,6.69-28.54.32-1.31,1.09-2.54,1.18-3.89.16-2.65-.13-5.32-.45-7.95-.28-2.29-1.4-4.49-1.36-6.8.05-2.7,1.7-5.25,1.63-7.95-.14-5.44-2.3-10.73-2.26-16.17.05-6.04,1.21-12.04,2.53-17.94,1.21-5.39,3.38-10.54,5.06-15.82" fill="none" stroke="#da0000" stroke-miterlimit="10"/><path d="M921.76,46.25c20.05,7.45,40.03,15.09,60.16,22.35.8.29,1.7.41,2.53.27,1.36-.24,2.64-.84,3.89-1.41,4.45-2.02,8.78-4.3,13.21-6.36.82-.38,1.63-1.02,2.53-.97,1.51.08,2.92.83,4.34,1.33,22.73,7.95,45.46,15.88,68.12,24.04,6.57,2.36,13,5.08,19.54,7.51,11.94,4.43,23.85,8.98,35.91,13.08,5.37,1.82,11.03,2.79,16.37,4.68,8.78,3.12,17.22,7.1,25.96,10.34,6.62,2.45,13.3,4.73,20.08,6.72,1.3.38,2.71.38,4.07.35,3.5-.06,6.99-.55,10.49-.62.85-.02,1.75.02,2.53.35,1.32.57,2.55,1.36,3.62,2.3,2.92,2.55,5.34,5.64,8.32,8.13.94.79,2.19,1.14,3.35,1.59,2.2.85,4.47,1.52,6.69,2.3,15.92,5.56,31.88,11.03,47.76,16.7,14.42,5.14,28.76,10.51,43.15,15.73,2.43.88,4.94,1.57,7.33,2.56.68.28,1.42.63,1.81,1.24.39.61.27,1.41.36,2.12.6,4.8,1.17,9.6,1.72,14.4.45,3.91.63,7.86,1.27,11.75.09.55.45,1.08.9,1.41,1.01.75,2.16,1.34,3.35,1.77,22.43,8.14,45.05,15.82,67.48,23.95,1.3.47,2.5,1.19,3.71,1.86,1.08.6,1.97,1.61,3.17,1.94.99.28,2.05-.28,3.08-.18,1.24.13,2.44.49,3.62.88,11.25,3.82,22.39,7.96,33.65,11.75,1.77.6,3.56,1.29,5.43,1.41,2.06.14,4.1-.86,6.15-.62,2.12.25,4.3.85,6.06,2.03.69.46.15,1.67.54,2.39.42.77,1.04,1.5,1.81,1.94,3.49,2.02,7.23,3.62,10.86,5.39,3.55,1.73,7.04,3.58,10.67,5.13,1.98.84,4.08,1.42,6.15,2.03,1.13.33,2.29.53,3.43.8" fill="none" stroke="#da0000" stroke-miterlimit="10"/><path d="M1459.45,46.25c-1.24,1.26-2.14,2.94-3.71,3.79-2.8,1.51-5.95,2.34-9.05,3.09-3.2.78-6.59.66-9.77,1.5-2.53.67-4.87,1.9-7.24,3-1.47.69-2.74,1.78-4.25,2.39-1.59.64-3.87.04-4.98,1.33-3.87,4.48-5.98,10.18-9.23,15.11-2.34,3.55-4.33,7.47-7.51,10.34-2.29,2.08-5.32,3.62-8.41,4.06-5.67.82-11.46-.33-17.19-.35-1.81,0-3.66-.12-5.43.27-3.43.74-6.61,2.37-10.04,3.09-2.45.52-5.04,1.05-7.51.62-1.18-.21-1.62-1.76-2.62-2.39-4.86-3.04-9.86-5.88-14.93-8.57-3.2-1.7-6.5-3.22-9.86-4.6-2.83-1.16-5.69-2.35-8.68-3-2.75-.6-5.82.36-8.41-.71-4.75-1.96-8.45-5.82-13.03-8.13-1.5-.76-3.29-1.12-4.98-.97-1.82.16-3.34,2.12-5.16,1.86-4.61-.67-8.75-3.17-13.21-4.51-3.96-1.19-7.89-3.21-12.03-3.09-4.65.13-9.33,1.58-13.39,3.8-4.5,2.46-7.26,7.29-11.67,9.9-9.35,5.54-19.95,8.87-29.31,14.4-3.8,2.25-6.27,6.19-9.86,8.75-.68.49-1.89-.45-2.53.09-1.19.99-1.2,2.94-2.35,3.98-3.98,3.56-8.7,6.25-12.85,9.63-1.33,1.08-2.72,2.22-3.53,3.71-4.69,8.7-8.53,17.81-12.85,26.69-.39.81-1.29,1.49-1.27,2.39.07,2.09,1.14,4.04,1.54,6.1,1.71,8.85,3.24,17.73,4.79,26.6,1.07,6.09,2.22,12.17,3.08,18.29.2,1.4.29,2.84.09,4.24-.44,3.07-1.28,6.08-1.99,9.1-3.12,13.27-6.18,26.55-9.5,39.77-.3,1.2-.65,2.43-1.36,3.45-.86,1.24-2.05,2.25-3.26,3.18-3.9,3.02-9.14,4.7-12.03,8.66-2.92,4-4.35,9.14-4.52,14.05-.09,2.53,2.58,4.4,3.8,6.63.59,1.07,1.58,2.06,1.63,3.27.05,1.12-.68,2.19-1.36,3.09-6.18,8.2-13.76,15.43-19.18,24.12-1.01,1.62,1.01,3.8.63,5.66-.85,4.21-3.23,8.02-4.25,12.19-1.76,7.19-2.84,14.53-4.07,21.83-.4,2.34.11,4.88-.81,7.07-1.3,3.08-4.04,5.4-5.7,8.31-.71,1.25-1.29,2.64-1.36,4.06-.41,8.33.04,16.67-.09,25.01-.02,1.59.24,3.29-.36,4.77-.37.91-1.51,1.32-2.35,1.86-2.12,1.35-4.33,2.55-6.51,3.8-2.19,1.25-4.91,1.87-6.6,3.71-2.25,2.44-2.97,5.9-4.79,8.66-.82,1.24-1.79,2.49-3.08,3.27-1.84,1.12-4.36.99-6.06,2.3-1.14.87-1.52,2.44-1.9,3.8-1.46,5.18-1.49,10.77-3.62,15.73-1.19,2.77-4.05,4.53-6.06,6.8-.1.11-.27.21-.27.35,0,.29.01.52.05.7.14.7.74.45-.02.97-1.01.69-3.39,2.6-8.53,7.7-1.28,1.27-3.55.84-5.25,1.5-4.38,1.7-8.9,3.19-12.94,5.57-1.49.88-2.44,2.48-3.26,3.98-1.07,1.96-2.13,4.06-2.35,6.27-.21,2.14,1.17,4.21,1.09,6.36-.1,2.7-1.63,5.25-1.63,7.95,0,6.15.83,12.28,1.63,18.38.26,2.02.85,4,1.54,5.92.58,1.63,2.07,2.97,2.26,4.68.22,1.99,0,4.22-1.09,5.92-1.34,2.09-3.57,3.6-5.79,4.77-2.81,1.49-6.34,1.43-9.05,3.09-2.62,1.61-4.62,4.06-6.51,6.45-2.03,2.56-3.2,5.69-5.16,8.31-.93,1.24-1.99,2.55-3.44,3.18-1.69.74-3.79.05-5.52.71-1.03.39-2.13,1.24-2.35,2.3-.35,1.69-.23,3.73.81,5.13,1.08,1.44,3.77,1.05,4.88,2.47,1.65,2.1,2.09,4.89,2.89,7.42.91,2.87,1.6,5.8,2.23,8.74.37,1.72,1.01,3.48.76,5.22-.38,2.62-2.68,4.87-2.62,7.51.07,3.18.9,6.65,2.99,9.1,2.62,3.08,7.2,3.93,10.31,6.54,2.44,2.04,4.52,4.54,6.15,7.25,1.05,1.74,1.73,3.81,1.72,5.83-.02,3.7-.65,7.44-1.81,10.96-1.34,4.06-4.21,7.53-5.61,11.58-.56,1.62-.36,3.42-.18,5.13.28,2.68.55,5.43,1.54,7.95.88,2.25,2.79,3.99,3.98,6.1,1.04,1.85,1.38,4.09,2.71,5.74,1.18,1.47,3.34,1.96,4.61,3.36,2.57,2.83,4.73,5.99,6.78,9.19,1.04,1.62,2.34,3.31,2.44,5.21.07,1.27-1.67,2.04-1.99,3.27-.51,1.95.06,4.06-.45,6.01-.89,3.37-3.65,6.32-3.71,9.81-.07,4.04,1.19,8.22,3.35,11.66,4.44,7.09,11.29,12.5,16.1,19.35,2.33,3.32,2.77,7.68,5.16,10.96.99,1.35,3.39,1.06,4.52,2.3,2.76,3,6.02,6.13,6.87,10.07.49,2.28-2.6,3.97-3.35,6.19-1.37,4.05-1.4,8.48-2.99,12.46-.88,2.2-3.54,3.49-4.25,5.74-1.1,3.48-.67,7.25-1.01,10.87-.02.27-.04.53-.07.8-.65,4.71-1.85,9.38-1.99,14.14-.1,3.38.58,6.76,1.27,10.07,1.34,6.48,3.55,12.77,4.79,19.26.54,2.81-.32,5.84.54,8.57,2.6,8.24,6.49,16.03,9.77,24.04,1.33,3.25,2.55,6.55,4.07,9.72,1.35,2.82,2.58,5.75,4.52,8.22,1.88,2.4,4.87,3.81,6.78,6.19,4.39,5.44,8.71,11.02,12.03,17.14,3.62,6.68,5.69,14.06,8.68,21.03,1.56,3.63,3.01,7.34,4.98,10.78,1.19,2.09,2.38,4.43,4.43,5.74,1.74,1.12,4.24.25,6.15,1.06,1.27.54,2.25,1.68,2.99,2.83.93,1.45,1.07,3.27,1.9,4.77,1.2,2.2,3.38,3.9,4.16,6.27,1.07,3.25.59,6.81,1.27,10.16.56,2.75,1.63,5.38,2.44,8.07" fill="none" stroke="#da0000" stroke-miterlimit="10"/><path d="M1029.13,634.32c1.81.27,3.6.93,5.43.8,2.18-.16,4.19-2.12,6.33-1.68,2.97.61,4.86,3.81,7.78,4.6,3.23.86,7.08-1.35,10.04.18,4.56,2.36,6.77,7.73,10.95,10.69,2.16,1.53,5.29,1.16,7.6,2.47,5.12,2.91,10.16,6.11,14.47,10.07,1.51,1.39,1.52,3.79,2.53,5.57.19.34.74.33,1,.62,1.39,1.61,2.82,3.21,3.89,5.04,1.96,3.35,2.26,7.8,5.16,10.43,2.27,2.06,5.86,2.39,8.96,2.39,1.69,0,2.75-2.26,4.43-2.39,3.45-.27,7.15-.13,10.31,1.24,3.03,1.31,4.72,4.58,7.42,6.45,2.25,1.57,4.56,3.77,7.33,3.8,3.48.04,6.29-3.55,9.77-3.62,3.83-.08,7.54,1.63,11.04,3.18,2.5,1.11,4.11,3.78,6.69,4.68,5.04,1.77,10.4,2.77,15.74,3.18,1.44.11,2.54-1.59,3.98-1.68,1.87-.12,3.81.3,5.52,1.06,3.1,1.39,6.02,3.21,8.68,5.3,4.57,3.59,7.91,8.71,12.94,11.66,4.13,2.42,9.31,2.47,13.84,4.06,3.29,1.15,6.43,2.7,9.59,4.15,2.48,1.14,5.43,1.7,7.33,3.62,1.91,1.95,2.31,4.9,3.46,7.36.9,1.91,2.02,3.73,2.69,5.72.45,1.33-.32,3.1.63,4.15,2.33,2.58,5.72,4.03,8.58,6.04,2.87,2.02,5.72,4.06,8.61,6.06,1.22.85,2.32,1.92,3.71,2.47,1.54.62,3.36.33,4.88.97,2.05.86,3.6,2.71,5.7,3.45,1.68.59,3.64-.1,5.34.44,4.13,1.33,8.24,2.89,11.94,5.13,1.64.99,2.09,3.31,3.71,4.33,1.69,1.07,4.02.74,5.79,1.68,1.57.84,2.2,3.34,3.98,3.53,9.62,1.06,19.38-.51,29.04.09,2.26.14,4.31,1.33,6.42,2.12,1.6.6,3.03,1.67,4.7,2.03,6,1.3,12.14,1.85,18.18,2.92,1.5.26,2.92,1.18,4.43,1.06,4.89-.39,9.57-2.49,14.47-2.56,3.55-.05,6.86,2.45,10.4,2.21,4.82-.33,9.18-3.05,13.93-3.89,1.56-.27,3.14.36,4.7.62,2.3.39,4.86.17,6.88,1.33,2.61,1.49,3.71,4.97,6.42,6.27,1.81.87,4.05-.49,6.06-.27.99.11,1.81.82,2.71,1.24" fill="none" stroke="#da0000" stroke-miterlimit="10"/><path d="M1025.88,572.78c4.67-.66,9.4-1.02,14.02-1.99,4.06-.85,7.81-3.09,11.94-3.45,6.37-.54,12.85,1.72,19.18.8,14.1-2.07,28.06-5.39,41.61-9.72,1.8-.57,1.58-3.59,3.17-4.59,1.59-1.01,3.94-.1,5.61-.97,1.43-.75,2.16-2.38,3.17-3.62.95-1.17,1.4-2.85,2.71-3.62,1.99-1.18,4.39-1.62,6.69-1.94,3.62-.51,7.29-.51,10.95-.53,7.9-.04,15.95-1.15,23.7.35,1.83.35,1.91,3.13,2.71,4.77.65,1.34.32,3.39,1.63,4.15,1.98,1.15,4.9,1.97,6.87.8,4.85-2.88,7.25-8.69,11.85-11.93,1.25-.88,3.23,1.01,4.61.35,1.15-.55.65-2.66,1.72-3.36,3.52-2.31,7.53-3.82,11.49-5.3,1.37-.51,2.92-.97,4.34-.62,1.65.41,2.83,1.83,4.25,2.74" fill="none" stroke="#da0000" stroke-miterlimit="10"/><path d="M1259.35,507.61c-5.19,3.15-9.86,7.31-15.56,9.46-1.39.52-2.42-1.95-3.89-2.12-1.94-.23-4.57-.52-5.79.97-3.91,4.82-4.35,11.82-8.41,16.52-1.17,1.36-3.72-1.13-5.43-.53-1.23.43-1.8,1.96-2.17,3.18-.44,1.44.96,3.49-.18,4.51-1.75,1.56-5.1.24-6.87,1.77-2.29,1.97-3.59,4.98-4.34,7.86-.54,2.07,1.06,4.27.63,6.36-.75,3.67-3.18,6.87-4.07,10.52-1,4.1-1.15,8.35-1.54,12.55-.19,2.08.52,4.3-.18,6.27-1.01,2.86-4.5,4.76-4.79,7.78-.2,2.12,2.15,3.73,3.53,5.39,1.38,1.66,3.82,2.54,4.7,4.51,3.15,7.02,4.08,14.86,7.15,21.91.91,2.09,3.3,3.25,4.61,5.13,1,1.42,1.44,3.15,2.26,4.68,2.44,4.57,5.34,8.91,7.51,13.61.84,1.82.39,4.12,1.45,5.83,1.65,2.68,4.58,4.42,6.42,6.98,2.43,3.37,3.56,7.59,6.33,10.69,1.28,1.44,3.75,1.27,5.34,2.39.88.62,2.09,1.63,1.81,2.65-1.28,4.69-4.19,8.8-6.15,13.25-1.66,3.76-4.27,7.33-4.7,11.4-.59,5.62,1.15,11.25,1.72,16.88.18,1.8.34,3.6.54,5.39.16,1.42.68,2.82.54,4.24-.17,1.76-1.5,3.35-1.45,5.13.05,1.66.47,3.55,1.72,4.68,1.18,1.07,3.09,1.13,4.7,1.15,2.21.02,4.36-.69,6.54-1.04" fill="none" stroke="#da0000" stroke-miterlimit="10"/><path d="M1104.3,683.1c2.08-4.68,2.67-10.32,6.24-14.05,3.6-3.76,10.17-3.64,14.02-7.16,2.68-2.45,2.39-6.89,4.52-9.81,2.47-3.37,5.42-6.6,9.05-8.75,3.48-2.06,8.05-1.72,11.67-3.53,1.99-1,3.08-3.18,4.7-4.68.64-.59,1.56-.9,2.08-1.59.89-1.17,1.07-2.81,2.08-3.89,1.25-1.34,3.36-1.77,4.52-3.18.78-.95,1.03-2.31.99-3.53-.03-1.21-1.53-2.29-1.18-3.45.4-1.32,2.01-1.93,3.08-2.83,1.25-1.05,2.63-1.96,3.89-3,2.63-2.17,4.94-4.73,7.78-6.63.89-.6,2.16-1.1,3.17-.71,2,.77,3.06,3.14,5.07,3.89,2.12.79,4.89,1.75,6.78.53,1.74-1.13.73-4.04,1.54-5.92.4-.92,1.29-1.56,1.99-2.3,1.37-1.43,2.81-2.79,4.22-4.19" fill="none" stroke="#da0000" stroke-miterlimit="10"/><path d="M1068.21,850.12c-4.67,3.45-9.12,7.21-14.02,10.34-9.16,5.84-19.62,9.82-28.13,16.52-2.85,2.24-2.79,6.68-4.98,9.54-1.95,2.56-5.64,3.67-7.24,6.45-1.7,2.97-1.8,6.6-2.17,9.99-.27,2.46.18,4.95.27,7.42" fill="none" stroke="#da0000" stroke-miterlimit="10"/><path d="M1063.67,797.27c6.46,2.8,12.73,6.03,19.37,8.4,2.2.78,4.76.18,6.97.97,11.12,4,21.48,10.02,32.84,13.34,3.61,1.06,7.55-.71,11.31-.44,1.28.09,2.38.94,3.53,1.5,6.61,3.26,12.82,7.36,19.72,9.99,3.12,1.19,6.71.5,9.95,1.33,3.95,1.01,7.64,2.82,11.49,4.15,3.3,1.14,6.53,2.57,9.95,3.27,4.94,1.01,9.98,1.57,15.02,1.86,1.64.09,3.58.27,4.88-.71,2.58-1.92,3.25-5.85,6.06-7.42,3.63-2.03,8.47-1.01,12.21-2.83,1.2-.58.59-2.59,1.27-3.71.91-1.51,2.68-2.47,3.44-4.06.71-1.49-.26-3.6.81-4.86,1.36-1.6,4.21-1.34,5.7-2.83,1.17-1.17.65-3.35,1.72-4.6,3.86-4.5,8.76-8.06,12.85-12.37.91-.96,1.96-2.06,2.08-3.36.26-2.72-1.02-5.4-1-8.13,0-.9.99-1.58,1.09-2.47.3-2.66-.39-5.4.09-8.04.5-2.73,1.84-5.25,2.8-7.86.97-2.63,2.03-5.23,2.99-7.86.85-2.33,1.62-4.69,2.43-7.04" fill="none" stroke="#da0000" stroke-miterlimit="10"/><image width="150" height="150" transform="translate(992.93 378.92) scale(2.04)" xlink:href="anambra-logo.png"/></svg>